<mxfile host="app.diagrams.net" modified="2021-05-25T06:45:18.766Z" agent="5.0 (Macintosh; Intel Mac OS X 10_15_7) AppleWebKit/537.36 (KHTML, like Gecko) Chrome/90.0.4430.212 Safari/537.36" etag="JSFaGVy-OuS9JDrCooG1" version="14.7.0" type="github" pages="4">
  <diagram id="eO8qdhasBFPmjSC4dK6y" name="Page-1">
    <mxGraphModel dx="1186" dy="682" grid="1" gridSize="10" guides="1" tooltips="1" connect="1" arrows="1" fold="1" page="1" pageScale="1" pageWidth="850" pageHeight="1100" math="0" shadow="0">
      <root>
        <mxCell id="0" />
        <mxCell id="1" parent="0" />
        <mxCell id="UDRWK9c7PQuOykhMUfSk-1" value="Client" style="rounded=0;whiteSpace=wrap;html=1;fillColor=#ffe6cc;strokeColor=#d79b00;shadow=1;fontFamily=Tahoma;" vertex="1" parent="1">
          <mxGeometry x="80" y="120" width="120" height="60" as="geometry" />
        </mxCell>
        <mxCell id="UDRWK9c7PQuOykhMUfSk-2" value="Remote" style="rounded=0;whiteSpace=wrap;html=1;fillColor=#ffe6cc;strokeColor=#d79b00;shadow=1;fontFamily=Tahoma;" vertex="1" parent="1">
          <mxGeometry x="600" y="120" width="120" height="60" as="geometry" />
        </mxCell>
        <mxCell id="UDRWK9c7PQuOykhMUfSk-3" value="→ LINK&lt;br&gt;→&amp;nbsp;SET_PROPERTY&lt;br&gt;→&amp;nbsp;INVOKE&lt;br&gt;&lt;br&gt;&lt;br&gt;→&amp;nbsp;UNLINK" style="text;html=1;strokeColor=none;fillColor=none;align=left;verticalAlign=top;whiteSpace=wrap;rounded=0;spacing=8;fontFamily=Tahoma;" vertex="1" parent="1">
          <mxGeometry x="240" y="120" width="160" height="120" as="geometry" />
        </mxCell>
        <mxCell id="UDRWK9c7PQuOykhMUfSk-4" value="INIT ←&lt;br&gt;PROPERTY_CHANGE&amp;nbsp;←&lt;br&gt;INVOKE_REPLY&amp;nbsp;←&lt;br&gt;SIGNAL&amp;nbsp;←&lt;br&gt;ERROR&amp;nbsp;←" style="text;html=1;strokeColor=none;fillColor=none;align=right;verticalAlign=top;whiteSpace=wrap;rounded=0;spacing=8;fontFamily=Tahoma;" vertex="1" parent="1">
          <mxGeometry x="400" y="120" width="160" height="120" as="geometry" />
        </mxCell>
      </root>
    </mxGraphModel>
  </diagram>
  <diagram id="LgQ_S9b9M5kJvGx-2rS1" name="Page-2">
    <mxGraphModel dx="1186" dy="682" grid="1" gridSize="10" guides="1" tooltips="1" connect="1" arrows="1" fold="1" page="1" pageScale="1" pageWidth="850" pageHeight="1100" math="0" shadow="0">
      <root>
        <mxCell id="VsA2GdEn-oOpY3Gt5OVe-0" />
        <mxCell id="VsA2GdEn-oOpY3Gt5OVe-1" parent="VsA2GdEn-oOpY3Gt5OVe-0" />
        <mxCell id="0F-st6zKfV2zs0LUEXbJ-3" style="edgeStyle=orthogonalEdgeStyle;rounded=0;orthogonalLoop=1;jettySize=auto;html=1;entryX=0;entryY=0.5;entryDx=0;entryDy=0;fontFamily=Tahoma;" edge="1" parent="VsA2GdEn-oOpY3Gt5OVe-1" source="0F-st6zKfV2zs0LUEXbJ-0" target="0F-st6zKfV2zs0LUEXbJ-1">
          <mxGeometry relative="1" as="geometry" />
        </mxCell>
        <mxCell id="0F-st6zKfV2zs0LUEXbJ-0" value="Client" style="rounded=0;whiteSpace=wrap;html=1;fillColor=#ffe6cc;strokeColor=#d79b00;shadow=1;fontFamily=Tahoma;" vertex="1" parent="VsA2GdEn-oOpY3Gt5OVe-1">
          <mxGeometry x="80" y="120" width="120" height="60" as="geometry" />
        </mxCell>
        <mxCell id="0F-st6zKfV2zs0LUEXbJ-4" style="edgeStyle=orthogonalEdgeStyle;rounded=0;orthogonalLoop=1;jettySize=auto;html=1;fontFamily=Tahoma;" edge="1" parent="VsA2GdEn-oOpY3Gt5OVe-1" source="0F-st6zKfV2zs0LUEXbJ-1" target="0F-st6zKfV2zs0LUEXbJ-2">
          <mxGeometry relative="1" as="geometry" />
        </mxCell>
        <mxCell id="0F-st6zKfV2zs0LUEXbJ-8" style="edgeStyle=orthogonalEdgeStyle;rounded=0;orthogonalLoop=1;jettySize=auto;html=1;entryX=0;entryY=0.5;entryDx=0;entryDy=0;fontFamily=Tahoma;exitX=0.5;exitY=1;exitDx=0;exitDy=0;" edge="1" parent="VsA2GdEn-oOpY3Gt5OVe-1" source="0F-st6zKfV2zs0LUEXbJ-1" target="0F-st6zKfV2zs0LUEXbJ-6">
          <mxGeometry relative="1" as="geometry" />
        </mxCell>
        <mxCell id="0F-st6zKfV2zs0LUEXbJ-9" style="edgeStyle=orthogonalEdgeStyle;rounded=0;orthogonalLoop=1;jettySize=auto;html=1;entryX=0;entryY=0.5;entryDx=0;entryDy=0;fontFamily=Tahoma;exitX=0.5;exitY=1;exitDx=0;exitDy=0;" edge="1" parent="VsA2GdEn-oOpY3Gt5OVe-1" source="0F-st6zKfV2zs0LUEXbJ-1" target="0F-st6zKfV2zs0LUEXbJ-7">
          <mxGeometry relative="1" as="geometry" />
        </mxCell>
        <mxCell id="0F-st6zKfV2zs0LUEXbJ-1" value="Proxy" style="rounded=0;whiteSpace=wrap;html=1;fillColor=#f8cecc;strokeColor=#b85450;shadow=1;fontFamily=Tahoma;" vertex="1" parent="VsA2GdEn-oOpY3Gt5OVe-1">
          <mxGeometry x="320" y="120" width="120" height="60" as="geometry" />
        </mxCell>
        <mxCell id="0F-st6zKfV2zs0LUEXbJ-2" value="Remote" style="rounded=0;whiteSpace=wrap;html=1;fillColor=#ffe6cc;strokeColor=#d79b00;shadow=1;fontFamily=Tahoma;" vertex="1" parent="VsA2GdEn-oOpY3Gt5OVe-1">
          <mxGeometry x="560" y="120" width="120" height="60" as="geometry" />
        </mxCell>
        <mxCell id="0F-st6zKfV2zs0LUEXbJ-6" value="SimulationServer" style="rounded=0;whiteSpace=wrap;html=1;fillColor=#f8cecc;strokeColor=#b85450;shadow=1;fontFamily=Tahoma;" vertex="1" parent="VsA2GdEn-oOpY3Gt5OVe-1">
          <mxGeometry x="440" y="240" width="120" height="60" as="geometry" />
        </mxCell>
        <mxCell id="0F-st6zKfV2zs0LUEXbJ-7" value="Monitor" style="rounded=0;whiteSpace=wrap;html=1;fillColor=#f8cecc;strokeColor=#b85450;shadow=1;fontFamily=Tahoma;" vertex="1" parent="VsA2GdEn-oOpY3Gt5OVe-1">
          <mxGeometry x="440" y="320" width="120" height="60" as="geometry" />
        </mxCell>
      </root>
    </mxGraphModel>
  </diagram>
  <diagram id="-8ryE2XHEzpwrFqN5lnB" name="Page-3">
    <mxGraphModel dx="1186" dy="682" grid="1" gridSize="10" guides="1" tooltips="1" connect="1" arrows="1" fold="1" page="1" pageScale="1" pageWidth="850" pageHeight="1100" math="0" shadow="0">
      <root>
        <mxCell id="Zjfn4GRQ2j8fWQOHw0aB-0" />
        <mxCell id="Zjfn4GRQ2j8fWQOHw0aB-1" parent="Zjfn4GRQ2j8fWQOHw0aB-0" />
        <mxCell id="Zjfn4GRQ2j8fWQOHw0aB-5" value="serverForName" style="edgeStyle=orthogonalEdgeStyle;rounded=0;orthogonalLoop=1;jettySize=auto;html=1;entryX=0;entryY=0.5;entryDx=0;entryDy=0;fontFamily=Tahoma;exitX=0.5;exitY=1;exitDx=0;exitDy=0;" edge="1" parent="Zjfn4GRQ2j8fWQOHw0aB-1" source="Zjfn4GRQ2j8fWQOHw0aB-2" target="Zjfn4GRQ2j8fWQOHw0aB-4">
          <mxGeometry relative="1" as="geometry" />
        </mxCell>
        <mxCell id="Zjfn4GRQ2j8fWQOHw0aB-6" value="name bar" style="edgeStyle=orthogonalEdgeStyle;rounded=0;orthogonalLoop=1;jettySize=auto;html=1;entryX=0;entryY=0.5;entryDx=0;entryDy=0;fontFamily=Tahoma;" edge="1" parent="Zjfn4GRQ2j8fWQOHw0aB-1" source="Zjfn4GRQ2j8fWQOHw0aB-2" target="Zjfn4GRQ2j8fWQOHw0aB-3">
          <mxGeometry relative="1" as="geometry" />
        </mxCell>
        <mxCell id="IdesGKnkXawtjbMZwKen-2" value="name foo" style="edgeStyle=orthogonalEdgeStyle;rounded=0;orthogonalLoop=1;jettySize=auto;html=1;entryX=0;entryY=0.5;entryDx=0;entryDy=0;fontFamily=Tahoma;exitX=0.5;exitY=0;exitDx=0;exitDy=0;" edge="1" parent="Zjfn4GRQ2j8fWQOHw0aB-1" source="Zjfn4GRQ2j8fWQOHw0aB-2" target="IdesGKnkXawtjbMZwKen-0">
          <mxGeometry relative="1" as="geometry">
            <mxPoint x="140" y="110" as="sourcePoint" />
            <Array as="points">
              <mxPoint x="140" y="50" />
            </Array>
          </mxGeometry>
        </mxCell>
        <mxCell id="Zjfn4GRQ2j8fWQOHw0aB-2" value="Client" style="rounded=0;whiteSpace=wrap;html=1;fillColor=#ffe6cc;strokeColor=#d79b00;shadow=1;fontFamily=Tahoma;" vertex="1" parent="Zjfn4GRQ2j8fWQOHw0aB-1">
          <mxGeometry x="80" y="120" width="120" height="60" as="geometry" />
        </mxCell>
        <mxCell id="Zjfn4GRQ2j8fWQOHw0aB-3" value="Remote" style="rounded=0;whiteSpace=wrap;html=1;fillColor=#ffe6cc;strokeColor=#d79b00;shadow=1;fontFamily=Tahoma;" vertex="1" parent="Zjfn4GRQ2j8fWQOHw0aB-1">
          <mxGeometry x="440" y="120" width="120" height="60" as="geometry" />
        </mxCell>
        <mxCell id="Zjfn4GRQ2j8fWQOHw0aB-4" value="Registry" style="rounded=0;whiteSpace=wrap;html=1;fillColor=#f8cecc;strokeColor=#b85450;shadow=1;fontFamily=Tahoma;" vertex="1" parent="Zjfn4GRQ2j8fWQOHw0aB-1">
          <mxGeometry x="240" y="220" width="120" height="60" as="geometry" />
        </mxCell>
        <mxCell id="IdesGKnkXawtjbMZwKen-3" style="edgeStyle=orthogonalEdgeStyle;rounded=0;orthogonalLoop=1;jettySize=auto;html=1;entryX=0;entryY=0.5;entryDx=0;entryDy=0;fontFamily=Tahoma;" edge="1" parent="Zjfn4GRQ2j8fWQOHw0aB-1" source="IdesGKnkXawtjbMZwKen-0" target="IdesGKnkXawtjbMZwKen-1">
          <mxGeometry relative="1" as="geometry" />
        </mxCell>
        <mxCell id="IdesGKnkXawtjbMZwKen-0" value="Proxy" style="rounded=0;whiteSpace=wrap;html=1;fillColor=#f8cecc;strokeColor=#b85450;shadow=1;fontFamily=Tahoma;" vertex="1" parent="Zjfn4GRQ2j8fWQOHw0aB-1">
          <mxGeometry x="240" y="20" width="120" height="60" as="geometry" />
        </mxCell>
        <mxCell id="IdesGKnkXawtjbMZwKen-1" value="Remote" style="rounded=0;whiteSpace=wrap;html=1;fillColor=#ffe6cc;strokeColor=#d79b00;shadow=1;fontFamily=Tahoma;" vertex="1" parent="Zjfn4GRQ2j8fWQOHw0aB-1">
          <mxGeometry x="440" y="20" width="120" height="60" as="geometry" />
        </mxCell>
      </root>
    </mxGraphModel>
  </diagram>
  <diagram id="lJogqOEKs6c00ppnFFYl" name="Page-4">
    <mxGraphModel dx="2036" dy="682" grid="1" gridSize="10" guides="1" tooltips="1" connect="1" arrows="1" fold="1" page="1" pageScale="1" pageWidth="850" pageHeight="1100" math="0" shadow="0">
      <root>
        <mxCell id="H0GmcUamdGFzU-9GU1p4-0" />
        <mxCell id="H0GmcUamdGFzU-9GU1p4-1" parent="H0GmcUamdGFzU-9GU1p4-0" />
        <mxCell id="H0GmcUamdGFzU-9GU1p4-24" style="edgeStyle=orthogonalEdgeStyle;rounded=0;orthogonalLoop=1;jettySize=auto;html=1;fontFamily=Tahoma;" edge="1" parent="H0GmcUamdGFzU-9GU1p4-1" source="H0GmcUamdGFzU-9GU1p4-21" target="H0GmcUamdGFzU-9GU1p4-23">
          <mxGeometry relative="1" as="geometry" />
        </mxCell>
        <mxCell id="H0GmcUamdGFzU-9GU1p4-21" value="Proxy" style="rounded=0;whiteSpace=wrap;html=1;shadow=1;fontFamily=Tahoma;align=left;verticalAlign=top;spacing=8;fillColor=#f8cecc;strokeColor=#b85450;" vertex="1" parent="H0GmcUamdGFzU-9GU1p4-1">
          <mxGeometry x="80" y="70" width="380" height="250" as="geometry" />
        </mxCell>
        <mxCell id="H0GmcUamdGFzU-9GU1p4-17" style="edgeStyle=orthogonalEdgeStyle;rounded=0;orthogonalLoop=1;jettySize=auto;html=1;entryX=0;entryY=0.5;entryDx=0;entryDy=0;fontFamily=Tahoma;" edge="1" parent="H0GmcUamdGFzU-9GU1p4-1" source="H0GmcUamdGFzU-9GU1p4-2" target="H0GmcUamdGFzU-9GU1p4-3">
          <mxGeometry relative="1" as="geometry" />
        </mxCell>
        <mxCell id="H0GmcUamdGFzU-9GU1p4-18" style="edgeStyle=orthogonalEdgeStyle;rounded=0;orthogonalLoop=1;jettySize=auto;html=1;entryX=0;entryY=0.5;entryDx=0;entryDy=0;fontFamily=Tahoma;" edge="1" parent="H0GmcUamdGFzU-9GU1p4-1" source="H0GmcUamdGFzU-9GU1p4-2" target="H0GmcUamdGFzU-9GU1p4-11">
          <mxGeometry relative="1" as="geometry" />
        </mxCell>
        <mxCell id="H0GmcUamdGFzU-9GU1p4-2" value="Remote" style="rounded=0;whiteSpace=wrap;html=1;shadow=1;fontFamily=Tahoma;align=center;fillColor=#ffe6cc;strokeColor=#d79b00;" vertex="1" parent="H0GmcUamdGFzU-9GU1p4-1">
          <mxGeometry x="120" y="170" width="120" height="60" as="geometry" />
        </mxCell>
        <mxCell id="H0GmcUamdGFzU-9GU1p4-10" style="edgeStyle=orthogonalEdgeStyle;rounded=0;orthogonalLoop=1;jettySize=auto;html=1;entryX=0;entryY=0.5;entryDx=0;entryDy=0;fontFamily=Tahoma;" edge="1" parent="H0GmcUamdGFzU-9GU1p4-1" source="H0GmcUamdGFzU-9GU1p4-3" target="H0GmcUamdGFzU-9GU1p4-4">
          <mxGeometry relative="1" as="geometry">
            <Array as="points">
              <mxPoint x="480" y="150" />
              <mxPoint x="480" y="110" />
            </Array>
          </mxGeometry>
        </mxCell>
        <mxCell id="H0GmcUamdGFzU-9GU1p4-3" value="Client" style="rounded=0;whiteSpace=wrap;html=1;shadow=1;fontFamily=Tahoma;align=center;fillColor=#ffe6cc;strokeColor=#d79b00;" vertex="1" parent="H0GmcUamdGFzU-9GU1p4-1">
          <mxGeometry x="300" y="120" width="120" height="60" as="geometry" />
        </mxCell>
        <mxCell id="H0GmcUamdGFzU-9GU1p4-15" style="edgeStyle=orthogonalEdgeStyle;rounded=0;orthogonalLoop=1;jettySize=auto;html=1;entryX=0;entryY=0.5;entryDx=0;entryDy=0;fontFamily=Tahoma;" edge="1" parent="H0GmcUamdGFzU-9GU1p4-1" source="H0GmcUamdGFzU-9GU1p4-4" target="H0GmcUamdGFzU-9GU1p4-5">
          <mxGeometry relative="1" as="geometry" />
        </mxCell>
        <mxCell id="H0GmcUamdGFzU-9GU1p4-16" style="edgeStyle=orthogonalEdgeStyle;rounded=0;orthogonalLoop=1;jettySize=auto;html=1;entryX=0;entryY=0.5;entryDx=0;entryDy=0;fontFamily=Tahoma;" edge="1" parent="H0GmcUamdGFzU-9GU1p4-1" source="H0GmcUamdGFzU-9GU1p4-4" target="H0GmcUamdGFzU-9GU1p4-6">
          <mxGeometry relative="1" as="geometry" />
        </mxCell>
        <mxCell id="H0GmcUamdGFzU-9GU1p4-4" value="Server" style="rounded=0;whiteSpace=wrap;html=1;shadow=1;fontFamily=Tahoma;align=center;fillColor=#f8cecc;strokeColor=#b85450;" vertex="1" parent="H0GmcUamdGFzU-9GU1p4-1">
          <mxGeometry x="520" y="80" width="120" height="60" as="geometry" />
        </mxCell>
        <mxCell id="H0GmcUamdGFzU-9GU1p4-5" value="Remote" style="rounded=0;whiteSpace=wrap;html=1;shadow=1;fontFamily=Tahoma;align=center;fillColor=#ffe6cc;strokeColor=#d79b00;" vertex="1" parent="H0GmcUamdGFzU-9GU1p4-1">
          <mxGeometry x="680" y="40" width="120" height="60" as="geometry" />
        </mxCell>
        <mxCell id="H0GmcUamdGFzU-9GU1p4-6" value="Remote" style="rounded=0;whiteSpace=wrap;html=1;shadow=1;fontFamily=Tahoma;align=center;fillColor=#ffe6cc;strokeColor=#d79b00;" vertex="1" parent="H0GmcUamdGFzU-9GU1p4-1">
          <mxGeometry x="680" y="120" width="120" height="60" as="geometry" />
        </mxCell>
        <mxCell id="H0GmcUamdGFzU-9GU1p4-13" style="edgeStyle=orthogonalEdgeStyle;rounded=0;orthogonalLoop=1;jettySize=auto;html=1;entryX=0;entryY=0.5;entryDx=0;entryDy=0;fontFamily=Tahoma;" edge="1" parent="H0GmcUamdGFzU-9GU1p4-1" source="H0GmcUamdGFzU-9GU1p4-7" target="H0GmcUamdGFzU-9GU1p4-8">
          <mxGeometry relative="1" as="geometry" />
        </mxCell>
        <mxCell id="H0GmcUamdGFzU-9GU1p4-14" style="edgeStyle=orthogonalEdgeStyle;rounded=0;orthogonalLoop=1;jettySize=auto;html=1;fontFamily=Tahoma;" edge="1" parent="H0GmcUamdGFzU-9GU1p4-1" source="H0GmcUamdGFzU-9GU1p4-7" target="H0GmcUamdGFzU-9GU1p4-9">
          <mxGeometry relative="1" as="geometry" />
        </mxCell>
        <mxCell id="H0GmcUamdGFzU-9GU1p4-7" value="Server" style="rounded=0;whiteSpace=wrap;html=1;shadow=1;fontFamily=Tahoma;align=center;fillColor=#f8cecc;strokeColor=#b85450;" vertex="1" parent="H0GmcUamdGFzU-9GU1p4-1">
          <mxGeometry x="520" y="260" width="120" height="60" as="geometry" />
        </mxCell>
        <mxCell id="H0GmcUamdGFzU-9GU1p4-8" value="Remote" style="rounded=0;whiteSpace=wrap;html=1;shadow=1;fontFamily=Tahoma;align=center;fillColor=#ffe6cc;strokeColor=#d79b00;" vertex="1" parent="H0GmcUamdGFzU-9GU1p4-1">
          <mxGeometry x="680" y="220" width="120" height="60" as="geometry" />
        </mxCell>
        <mxCell id="H0GmcUamdGFzU-9GU1p4-9" value="Remote" style="rounded=0;whiteSpace=wrap;html=1;shadow=1;fontFamily=Tahoma;align=center;fillColor=#ffe6cc;strokeColor=#d79b00;" vertex="1" parent="H0GmcUamdGFzU-9GU1p4-1">
          <mxGeometry x="680" y="300" width="120" height="60" as="geometry" />
        </mxCell>
        <mxCell id="H0GmcUamdGFzU-9GU1p4-12" style="edgeStyle=orthogonalEdgeStyle;rounded=0;orthogonalLoop=1;jettySize=auto;html=1;entryX=0;entryY=0.5;entryDx=0;entryDy=0;fontFamily=Tahoma;" edge="1" parent="H0GmcUamdGFzU-9GU1p4-1" source="H0GmcUamdGFzU-9GU1p4-11" target="H0GmcUamdGFzU-9GU1p4-7">
          <mxGeometry relative="1" as="geometry">
            <Array as="points">
              <mxPoint x="480" y="240" />
              <mxPoint x="480" y="290" />
            </Array>
          </mxGeometry>
        </mxCell>
        <mxCell id="H0GmcUamdGFzU-9GU1p4-11" value="Client" style="rounded=0;whiteSpace=wrap;html=1;shadow=1;fontFamily=Tahoma;align=center;fillColor=#ffe6cc;strokeColor=#d79b00;" vertex="1" parent="H0GmcUamdGFzU-9GU1p4-1">
          <mxGeometry x="300" y="220" width="120" height="60" as="geometry" />
        </mxCell>
        <mxCell id="H0GmcUamdGFzU-9GU1p4-20" style="edgeStyle=orthogonalEdgeStyle;rounded=0;orthogonalLoop=1;jettySize=auto;html=1;entryX=0;entryY=0.5;entryDx=0;entryDy=0;fontFamily=Tahoma;" edge="1" parent="H0GmcUamdGFzU-9GU1p4-1" source="H0GmcUamdGFzU-9GU1p4-19" target="H0GmcUamdGFzU-9GU1p4-2">
          <mxGeometry relative="1" as="geometry" />
        </mxCell>
        <mxCell id="H0GmcUamdGFzU-9GU1p4-19" value="Client" style="rounded=0;whiteSpace=wrap;html=1;shadow=1;fontFamily=Tahoma;align=center;fillColor=#ffe6cc;strokeColor=#d79b00;" vertex="1" parent="H0GmcUamdGFzU-9GU1p4-1">
          <mxGeometry x="-120" y="170" width="120" height="60" as="geometry" />
        </mxCell>
        <mxCell id="H0GmcUamdGFzU-9GU1p4-23" value="ProxyConf" style="rounded=0;whiteSpace=wrap;html=1;shadow=1;fontFamily=Tahoma;align=center;fillColor=#f8cecc;strokeColor=#b85450;" vertex="1" parent="H0GmcUamdGFzU-9GU1p4-1">
          <mxGeometry x="210" y="400" width="120" height="60" as="geometry" />
        </mxCell>
      </root>
    </mxGraphModel>
  </diagram>
</mxfile>
